<?xml version="1.0" encoding="UTF-8" standalone="no"?>
<svg
   xmlns:dc="http://purl.org/dc/elements/1.1/"
   xmlns:cc="http://creativecommons.org/ns#"
   xmlns:rdf="http://www.w3.org/1999/02/22-rdf-syntax-ns#"
   xmlns:svg="http://www.w3.org/2000/svg"
   xmlns="http://www.w3.org/2000/svg"
   xmlns:sodipodi="http://sodipodi.sourceforge.net/DTD/sodipodi-0.dtd"
   xmlns:inkscape="http://www.inkscape.org/namespaces/inkscape"
   enable-background="new 0 0 100 100"
   height="60.056"
   version="1.1"
   viewBox="0 0 60.056 60.056"
   width="60.056"
   xml:space="preserve"
   id="svg6"
   sodipodi:docname="vk.svg"
   inkscape:version="1.0 (4035a4fb49, 2020-05-01)"><metadata
     id="metadata12"><rdf:RDF><cc:Work
         rdf:about=""><dc:format>image/svg+xml</dc:format><dc:type
           rdf:resource="http://purl.org/dc/dcmitype/StillImage" /><dc:title></dc:title></cc:Work></rdf:RDF></metadata><defs
     id="defs10" /><sodipodi:namedview
     inkscape:document-rotation="0"
     pagecolor="#ffffff"
     bordercolor="#666666"
     borderopacity="1"
     objecttolerance="10"
     gridtolerance="10"
     guidetolerance="10"
     inkscape:pageopacity="0"
     inkscape:pageshadow="2"
     inkscape:window-width="1680"
     inkscape:window-height="987"
     id="namedview8"
     showgrid="false"
     inkscape:zoom="7.35"
     inkscape:cx="50.000029"
     inkscape:cy="22.785257"
     inkscape:window-x="-8"
     inkscape:window-y="-8"
     inkscape:window-maximized="1"
     inkscape:current-layer="svg6" /><g
     id="offset_x5F_print_x5F_outline"
     transform="translate(-13.731022,-28.670422)" /><style
     type="text/css"
     id="style2395">
	.st0{fill:#4267B2;}
	.st1{fill:url(#SVGID_1_);}
	.st2{fill:#FFFFFF;}
	.st3{fill:#C2191E;}
	.st4{fill:#1DA1F3;}
	.st5{fill:#FEFE00;}
	.st6{fill:#25D366;stroke:#FFFFFF;stroke-width:5;stroke-miterlimit:10;}
	.st7{fill:#CB2027;}
	.st8{fill:#0077B5;}
	.st9{fill:url(#SVGID_2_);}
	.st10{fill:url(#SVGID_3_);}
	.st11{fill:#FF004F;}
	.st12{fill:#00F7EF;}
	.st13{fill:#5181B8;}
	.st14{fill:#395976;}
	.st15{fill:#F58220;}
	.st16{fill:#E6162D;}
	.st17{fill:#FF9933;}
</style><g
     transform="matrix(1.0000031,0,0,1,-1.9721832,-1.9720001)"
     id="g2443"><g
       id="guidlines" /><g
       id="FB" /><g
       id="ig" /><g
       id="yt" /><g
       id="twitter" /><g
       id="snapchat" /><g
       id="WA" /><g
       id="Pinterrest" /><g
       id="Layer_9" /><g
       id="Layer_10" /><g
       id="Layer_11"><path
         class="st13"
         d="m 4,13.9 c 2.1,0 5.3,0 7.1,0 0.9,0 1.6,0.6 1.9,1.4 0.9,2.6 2.9,8.3 5.2,12.2 3.1,5.1 5.1,7 6.4,6.8 1.3,-0.3 0.9,-3.7 0.9,-6.4 0,-2.7 0.3,-7.3 -1,-9.4 l -2,-2.9 C 22,14.9 22.5,14 23.3,14 h 11.4 c 1.1,0 2,0.9 2,2 v 14.5 c 0,0 0.5,2.6 3.3,-0.1 2.8,-2.7 5.8,-7.7 8.3,-12.8 l 1,-2.4 c 0.3,-0.7 1,-1.2 1.8,-1.2 h 7.4 c 1.4,0 2.4,1.4 1.9,2.7 l -0.8,2.1 c 0,0 -2.7,5.4 -5.5,9.2 -2.8,3.9 -3.4,4.8 -3,5.8 0.4,1 7.6,7.7 9.4,10.9 0.5,0.9 0.9,1.7 1.3,2.4 0.7,1.3 -0.3,3 -1.8,3 h -8.4 c -0.7,0 -1.4,-0.4 -1.7,-1 l -0.8,-1.3 c 0,0 -5.1,-6 -8.2,-7.9 -3.2,-1.8 -3.1,0.8 -3.1,0.8 V 46 c 0,2.2 -1.8,4 -4,4 h -2 C 31.8,50 20.8,50 12,36.9 5.1,26.7 2.8,20.1 2,16.3 1.8,15.1 2.7,13.9 4,13.9 Z"
         id="path2407" /></g><g
       id="Layer_12" /><g
       id="Layer_13" /><g
       id="Layer_14" /><g
       id="Layer_15" /><g
       id="Layer_16" /><g
       id="Layer_17" /></g></svg>
